G04*
G04 #@! TF.GenerationSoftware,Altium Limited,Altium Designer,26.1.1 (7)*
G04*
G04 Layer_Physical_Order=1*
G04 Layer_Color=255*
%FSLAX44Y44*%
%MOMM*%
G71*
G04*
G04 #@! TF.SameCoordinates,EF441179-3093-475D-96A6-CC9CF34828CB*
G04*
G04*
G04 #@! TF.FilePolarity,Positive*
G04*
G01*
G75*
%ADD16C,1.8500*%
%ADD20C,1.3000*%
%ADD25R,1.2000X1.2000*%
%ADD26R,1.3000X1.3000*%
%ADD27C,1.2000*%
%ADD28R,1.3000X1.3000*%
%ADD29R,1.8500X1.8500*%
%ADD30C,0.7620*%
%ADD31C,0.3810*%
%ADD32C,1.5000*%
%ADD33C,1.2500*%
%ADD34R,1.3500X1.3500*%
%ADD35R,1.3500X1.3500*%
%ADD36C,1.6000*%
%ADD37R,1.5000X1.5000*%
%ADD38R,1.2500X1.2500*%
G04:AMPARAMS|DCode=39|XSize=1.6mm|YSize=1.6mm|CornerRadius=0.4mm|HoleSize=0mm|Usage=FLASHONLY|Rotation=90.000|XOffset=0mm|YOffset=0mm|HoleType=Round|Shape=RoundedRectangle|*
%AMROUNDEDRECTD39*
21,1,1.6000,0.8000,0,0,90.0*
21,1,0.8000,1.6000,0,0,90.0*
1,1,0.8000,0.4000,0.4000*
1,1,0.8000,0.4000,-0.4000*
1,1,0.8000,-0.4000,-0.4000*
1,1,0.8000,-0.4000,0.4000*
%
%ADD39ROUNDEDRECTD39*%
%ADD40C,1.3500*%
D16*
X1283270Y858520D02*
D03*
Y883920D02*
D03*
D20*
X1080000Y710000D02*
D03*
X1457960Y748030D02*
D03*
D25*
X1090000Y588130D02*
D03*
D26*
X1105400Y710000D02*
D03*
D27*
X1090000Y511870D02*
D03*
D28*
X1457960Y722630D02*
D03*
D29*
X1283270Y909320D02*
D03*
D30*
X1460000Y605000D02*
Y606591D01*
X1457960Y608631D02*
X1460000Y606591D01*
X1457960Y608631D02*
Y722630D01*
X864940Y521900D02*
X951900D01*
X709930Y676910D02*
X864940Y521900D01*
X748420Y715400D02*
X880350D01*
X709930Y676910D02*
X748420Y715400D01*
X709930Y500070D02*
Y676910D01*
Y500070D02*
X750000Y460000D01*
X1510000D01*
X1544700Y494700D01*
Y734950D01*
X1530350Y749300D02*
X1544700Y734950D01*
X1457960Y748030D02*
X1458595Y748665D01*
X1529715D01*
X1530350Y749300D01*
X1283270Y883920D02*
X1285352Y881838D01*
X1298752D01*
X1457960Y722630D01*
X1458595Y723265D01*
X1529715D01*
X1530350Y723900D01*
D31*
X969560Y877570D02*
X1022566D01*
X1023418Y878422D01*
X1071578D01*
X1180000Y770000D01*
Y602232D02*
Y770000D01*
X1177768Y600000D02*
X1180000Y602232D01*
X1145898Y600000D02*
X1177768D01*
X1067797Y521900D02*
X1145898Y600000D01*
X1028100Y521900D02*
X1067797D01*
X966686Y608714D02*
X1028100Y547300D01*
X966686Y608714D02*
Y629064D01*
X905750Y690000D02*
X966686Y629064D01*
X1105400Y710000D02*
X1135000Y680400D01*
Y650000D02*
Y680400D01*
X1074570Y572700D02*
X1090000Y588130D01*
X1028100Y572700D02*
X1074570D01*
X1135000Y633130D02*
Y650000D01*
X1090000Y588130D02*
X1135000Y633130D01*
X1090000Y511870D02*
X1092216D01*
X1095346Y515000D01*
X1270000D01*
X1460000D01*
X755100Y753110D02*
X879560Y877570D01*
X709930Y753110D02*
X755100D01*
X1193100Y999490D02*
X1283270Y909320D01*
X1035600Y999490D02*
X1193100D01*
X889490D02*
X945600D01*
X680000Y790000D02*
X889490Y999490D01*
X680000Y757640D02*
Y790000D01*
Y757640D02*
X709930Y727710D01*
D32*
X1028100Y598100D02*
D03*
X951900D02*
D03*
Y572700D02*
D03*
Y547300D02*
D03*
Y521900D02*
D03*
X1028100Y572700D02*
D03*
Y547300D02*
D03*
D33*
X880350Y664600D02*
D03*
X905750Y690000D02*
D03*
D34*
X1045000Y650000D02*
D03*
X969560Y877570D02*
D03*
X1035600Y999490D02*
D03*
D35*
X1270000Y605000D02*
D03*
X1460000Y515000D02*
D03*
D36*
X709930Y702310D02*
D03*
X1530350Y749300D02*
D03*
X709930Y753110D02*
D03*
Y727710D02*
D03*
D37*
X1028100Y521900D02*
D03*
D38*
X880350Y715400D02*
D03*
D39*
X709930Y676910D02*
D03*
X1530350Y723900D02*
D03*
D40*
X1135000Y650000D02*
D03*
X1270000Y515000D02*
D03*
X945600Y999490D02*
D03*
X1460000Y605000D02*
D03*
X879560Y877570D02*
D03*
M02*
