M48
;Layer_Color=9474304
;FILE_FORMAT=4:4
METRIC,LZ
;TYPE=PLATED
T01F00S00C0.7000
T02F00S00C0.7500
T03F00S00C0.8000
T04F00S00C0.8500
T05F00S00C0.9000
T06F00S00C1.1000
T07F00S00C1.2000
%
T01
X0109Y0051187
Y0058813
T02
X0088035Y006646
Y007154
X0090575Y0069
T03
X0145796Y0072263
Y0074803
X011054Y0071
X0108
T04
X0127Y00515
Y00605
X0146
Y00515
X01135Y0065
X01045
X0096956Y0087757
X0087956
X009456Y0099949
X010356
T05
X009519Y005219
Y005473
Y005727
Y005981
X010281
Y005727
Y005473
Y005219
T06
X0153035Y007239
Y007493
X0070993Y0075311
Y0072771
Y0070231
Y0067691
T07
X0128327Y0085852
Y0088392
Y0090932
M30
