G04*
G04 #@! TF.GenerationSoftware,Altium Limited,Altium Designer,26.1.1 (7)*
G04*
G04 Layer_Color=8388736*
%FSLAX44Y44*%
%MOMM*%
G71*
G04*
G04 #@! TF.SameCoordinates,EF441179-3093-475D-96A6-CC9CF34828CB*
G04*
G04*
G04 #@! TF.FilePolarity,Negative*
G04*
G01*
G75*
%ADD14C,1.7032*%
%ADD15C,1.4532*%
%ADD16C,1.8500*%
%ADD17R,1.5532X1.5532*%
%ADD18R,1.5532X1.5532*%
%ADD19C,1.8032*%
%ADD20C,1.3000*%
%ADD21R,1.7032X1.7032*%
%ADD22R,1.4532X1.4532*%
G04:AMPARAMS|DCode=23|XSize=1.8032mm|YSize=1.8032mm|CornerRadius=0.5016mm|HoleSize=0mm|Usage=FLASHONLY|Rotation=90.000|XOffset=0mm|YOffset=0mm|HoleType=Round|Shape=RoundedRectangle|*
%AMROUNDEDRECTD23*
21,1,1.8032,0.8000,0,0,90.0*
21,1,0.8000,1.8032,0,0,90.0*
1,1,1.0032,0.4000,0.4000*
1,1,1.0032,0.4000,-0.4000*
1,1,1.0032,-0.4000,-0.4000*
1,1,1.0032,-0.4000,0.4000*
%
%ADD23ROUNDEDRECTD23*%
%ADD24C,1.5532*%
%ADD25R,1.2000X1.2000*%
%ADD26R,1.3000X1.3000*%
%ADD27C,1.2000*%
%ADD28R,1.3000X1.3000*%
%ADD29R,1.8500X1.8500*%
D14*
X1028100Y598100D02*
D03*
X951900D02*
D03*
Y572700D02*
D03*
Y547300D02*
D03*
Y521900D02*
D03*
X1028100Y572700D02*
D03*
Y547300D02*
D03*
D15*
X880350Y664600D02*
D03*
X905750Y690000D02*
D03*
D16*
X1283270Y858520D02*
D03*
Y883920D02*
D03*
D17*
X1045000Y650000D02*
D03*
X969560Y877570D02*
D03*
X1035600Y999490D02*
D03*
D18*
X1270000Y605000D02*
D03*
X1460000Y515000D02*
D03*
D19*
X709930Y702310D02*
D03*
X1530350Y749300D02*
D03*
X709930Y753110D02*
D03*
Y727710D02*
D03*
D20*
X1080000Y710000D02*
D03*
X1457960Y748030D02*
D03*
D21*
X1028100Y521900D02*
D03*
D22*
X880350Y715400D02*
D03*
D23*
X709930Y676910D02*
D03*
X1530350Y723900D02*
D03*
D24*
X1135000Y650000D02*
D03*
X1270000Y515000D02*
D03*
X945600Y999490D02*
D03*
X1460000Y605000D02*
D03*
X879560Y877570D02*
D03*
D25*
X1090000Y588130D02*
D03*
D26*
X1105400Y710000D02*
D03*
D27*
X1090000Y511870D02*
D03*
D28*
X1457960Y722630D02*
D03*
D29*
X1283270Y909320D02*
D03*
M02*
