G04*
G04 #@! TF.GenerationSoftware,Altium Limited,Altium Designer,26.1.1 (7)*
G04*
G04 Layer_Color=16711935*
%FSLAX44Y44*%
%MOMM*%
G71*
G04*
G04 #@! TF.SameCoordinates,EF441179-3093-475D-96A6-CC9CF34828CB*
G04*
G04*
G04 #@! TF.FilePolarity,Positive*
G04*
G01*
G75*
%ADD12C,0.2000*%
%ADD43C,0.1000*%
D12*
X1067300Y694100D02*
X1118100D01*
X1067300D02*
Y725900D01*
X1118100D01*
Y694100D02*
Y725900D01*
X1080450Y572800D02*
X1099550D01*
X1080450Y527200D02*
Y572800D01*
Y527200D02*
X1099550D01*
Y572800D01*
X1442060Y709930D02*
X1473860D01*
Y760730D01*
X1442060D02*
X1473860D01*
X1442060Y709930D02*
Y760730D01*
X1267570Y829420D02*
Y938420D01*
Y829420D02*
X1313070D01*
Y938420D01*
X1267570D02*
X1313070D01*
D43*
X1019000Y518250D02*
G03*
X1019000Y518250I-5000J0D01*
G01*
X957000Y610750D02*
X1023000D01*
X957000Y509250D02*
X1023000D01*
X957000D02*
Y610750D01*
X1023000Y509250D02*
Y610750D01*
X1258000Y528500D02*
X1282000D01*
X1258000D02*
Y591500D01*
X1282000Y528500D02*
Y591500D01*
X1258000D02*
X1282000D01*
X1022100Y987490D02*
Y1011490D01*
X959100Y987490D02*
X1022100D01*
X959100Y1011490D02*
X1022100D01*
X959100Y987490D02*
Y1011490D01*
X1448000Y528500D02*
X1472000D01*
X1448000D02*
Y591500D01*
X1472000Y528500D02*
Y591500D01*
X1448000D02*
X1472000D01*
X1058500Y638000D02*
Y662000D01*
X1121500D01*
X1058500Y638000D02*
X1121500D01*
Y662000D01*
X845050Y657000D02*
X914950D01*
X845050Y723000D02*
X914950D01*
X845050Y657000D02*
Y723000D01*
X914950Y657000D02*
Y723000D01*
X956060Y865570D02*
Y889570D01*
X893060Y865570D02*
X956060D01*
X893060Y889570D02*
X956060D01*
X893060Y865570D02*
Y889570D01*
M02*
